:FULLY-SPECIFIED
:FORCE-ALL-JOINTS-BE-3DOF
:DEGREES
2344
root 1.55935 14.3643 -18.3291 920.785 -57.2155 168.104
lfemur -23.0067 -6.20376 10.0703
ltibia 23.8164 0 0
lfoot -10.0297 24.8882 0
ltoes -40.5421 0 0
rfemur -62.3454 -4.8553 9.97601
rtibia 77.9002 0 0
rfoot -16.23 -10.9594 0
rtoes 1.66656 0 0
lowerback 20.8908 3.67318 -3.95601
upperback 0.390269 3.63719 -1.0185
thorax -11.4958 1.82387 0.025725
lowerneck -5.30259 -2.04716 -4.23819
upperneck 1.80819 -2.46358 -0.212955
head 1.5109 -1.27851 0.576845
lclavicle 4.94481e-14 -5.87766e-15 0
lhumerus -25.4913 -24.8196 82.7593
lradius 101.121 0 0
lwrist 56.3565 0 0
lhand -22.5145 398.653 0
lfingers 7.12502 0 0
lthumb 3.70016 -650.687 0
rclavicle 6.37095e-14 8.80341e-15 0
rhumerus 45.9719 13.1759 -43.6254
rradius 51.2823 0 0
rwrist 3.95763 0 0
rhand -6.76978 -400.004 0
rfingers 7.12502 0 0
rthumb 19.1997 290.899 0
2345
root 1.69536 14.4422 -18.51 922.398 -60.322 166.81
lfemur -24.1619 -6.53244 10.602
ltibia 23.7747 0 0
lfoot -9.88067 24.67 0
ltoes -38.7203 0 0
rfemur -61.7576 -3.81554 9.69576
rtibia 77.6617 0 0
rfoot -16.7819 -11.9065 0
rtoes 1.64775 0 0
lowerback 21.0459 3.59166 -3.7812
upperback 0.416447 3.56553 -1.02336
thorax -11.5381 1.78087 -0.0635514
lowerneck -5.57499 -1.62496 -4.23017
upperneck 2.24731 -1.87732 -0.216943
head 1.68879 -0.991453 0.590228
lclavicle 4.52597e-14 -6.63026e-15 0
lhumerus -23.4563 -25.2268 81.7079
lradius 101.622 0 0
lwrist 55.6414 0 0
lhand -22.6638 398.5 0
lfingers 7.12502 0 0
lthumb 3.67076 -650.712 0
rclavicle 5.77979e-14 1.06329e-14 0
rhumerus 45.913 13.4718 -43.4763
rradius 51.8841 0 0
rwrist 3.6077 0 0
rhand -6.64453 -400.039 0
rfingers 7.12502 0 0
rthumb 19.6584 290.762 0
2346
root 1.82913 14.5176 -18.7003 924.1 -63.7196 165.561
lfemur -25.0985 -6.79891 11.0331
ltibia 24.0911 0 0
lfoot -9.70631 24.4147 0
ltoes -36.8469 0 0
rfemur -61.2109 -2.84855 9.43512
rtibia 77.4208 0 0
rfoot -17.3097 -12.8123 0
rtoes 1.5933 0 0
lowerback 21.1488 3.44163 -3.42146
upperback 0.395323 3.47369 -0.890133
thorax -11.6018 1.7261 -0.0972185
lowerneck -5.69656 -1.22645 -3.87397
upperneck 2.51125 -1.34528 -0.644968
head 1.7762 -0.736716 0.411236
lclavicle 4.05633e-14 -7.47415e-15 0
lhumerus -21.7719 -25.5638 80.8375
lradius 102.165 0 0
lwrist 54.9532 0 0
lhand -22.7754 398.386 0
lfingers 7.12502 0 0
lthumb 3.62908 -650.719 0
rclavicle 5.19926e-14 1.24296e-14 0
rhumerus 45.8763 13.6559 -43.3835
rradius 52.3321 0 0
rwrist 3.34504 0 0
rhand -6.44627 -400.095 0
rfingers 7.12502 0 0
rthumb 20.1123 290.626 0
2347
root 1.95751 14.5872 -18.8996 926.548 -67.1653 163.544
lfemur -25.7945 -6.99694 11.3535
ltibia 25.0008 0 0
lfoot -9.50939 24.1263 0
ltoes -34.9565 0 0
rfemur -60.7128 -1.96757 9.19766
rtibia 77.1799 0 0
rfoot -17.8074 -13.6665 0
rtoes 1.50619 0 0
lowerback 21.2516 3.32828 -3.15101
upperback 0.327563 3.40334 -0.807588
thorax -11.7224 1.68504 -0.145228
lowerneck -5.58657 -0.860911 -3.62673
upperneck 2.60906 -0.869136 -0.856863
head 1.77656 -0.502227 0.318361
lclavicle 3.5437e-14 -8.39529e-15 0
lhumerus -20.4964 -25.8191 80.1785
lradius 102.744 0 0
lwrist 54.2986 0 0
lhand -22.8452 398.314 0
lfingers 7.12502 0 0
lthumb 3.50825 -650.741 0
rclavicle 4.63465e-14 1.41769e-14 0
rhumerus 45.8637 13.7193 -43.3516
rradius 52.6117 0 0
rwrist 3.17991 0 0
rhand -6.1836 -400.168 0
rfingers 7.12502 0 0
rthumb 20.5569 290.493 0
2348
root 2.07308 14.6507 -19.1108 929.192 -70.8389 161.257
lfemur -26.2282 -7.12033 11.5531
ltibia 26.4444 0 0
lfoot -9.29273 23.809 0
ltoes -33.0831 0 0
rfemur -60.2708 -1.18582 8.98695
rtibia 76.9414 0 0
rfoot -18.2691 -14.4589 0
rtoes 1.38938 0 0
lowerback 21.3054 3.1323 -2.70395
upperback 0.312803 3.28829 -0.58056
thorax -11.7529 1.61762 -0.113811
lowerneck -6.16354 -0.45236 -3.39439
upperneck 3.32144 -0.288746 -1.147
head 2.10363 -0.230613 0.206719
lclavicle 2.99589e-14 -9.37964e-15 0
lhumerus -19.6883 -25.9808 79.7609
lradius 103.352 0 0
lwrist 53.6843 0 0
lhand -22.8694 398.289 0
lfingers 7.12502 0 0
lthumb 3.3146 -650.776 0
rclavicle 4.09129e-14 1.58586e-14 0
rhumerus 45.6388 13.9179 -43.4547
rradius 52.7081 0 0
rwrist 3.12259 0 0
rhand -5.86511 -400.257 0
rfingers 7.12502 0 0
rthumb 20.9875 290.364 0
2349
root 2.17368 14.7155 -19.3238 933.81 -74.5584 156.862
lfemur -26.3776 -7.16284 11.6219
ltibia 28.3626 0 0
lfoot -9.05915 23.4669 0
ltoes -31.2613 0 0
rfemur -59.8924 -0.516539 8.80655
rtibia 76.7078 0 0
rfoot -18.6888 -15.179 0
rtoes 1.24584 0 0
lowerback 21.4255 2.89459 -2.30684
upperback 0.28199 3.09443 -0.423008
thorax -11.8368 1.51305 -0.110138
lowerneck -6.24781 0.0268828 -3.01741
upperneck 3.53584 0.349286 -1.58187
head 2.18233 0.0760948 0.0283262
lclavicle 2.42072e-14 -1.04131e-14 0
lhumerus -19.4059 -26.0373 79.615
lradius 103.983 0 0
lwrist 53.1172 0 0
lhand -22.9233 398.285 0
lfingers 7.12502 0 0
lthumb 3.05448 -650.822 0
rclavicle 3.57447e-14 1.7458e-14 0
rhumerus 44.9909 14.4899 -43.7517
rradius 52.8439 0 0
rwrist 3.05608 0 0
rhand -5.49937 -400.359 0
rfingers 7.12502 0 0
rthumb 21.3992 290.24 0
2350
root 2.26218 14.7656 -19.5407 940.879 -78.3429 150.029
lfemur -26.5608 -7.12108 11.4081
ltibia 30.6961 0 0
lfoot -8.81148 23.1042 0
ltoes -29.5252 0 0
rfemur -59.5851 0.0270456 8.66004
rtibia 76.4817 0 0
rfoot -19.0604 -15.8167 0
rtoes 1.07854 0 0
lowerback 21.5332 2.69755 -1.69566
upperback 0.168986 3.01046 -0.279397
thorax -11.9988 1.4475 -0.280057
lowerneck -6.09279 0.462568 -2.38096
upperneck 3.6783 0.902481 -2.08788
head 2.20188 0.345081 -0.220397
lclavicle 1.82601e-14 -1.14818e-14 0
lhumerus -18.7526 -26.2132 79.3566
lradius 104.633 0 0
lwrist 52.6038 0 0
lhand -23.0789 398.275 0
lfingers 7.12502 0 0
lthumb 2.7342 -650.879 0
rclavicle 3.08951e-14 1.89589e-14 0
rhumerus 43.9604 15.3997 -44.2242
rradius 53.2389 0 0
rwrist 2.8628 0 0
rhand -5.09499 -400.472 0
rfingers 7.12502 0 0
rthumb 21.7876 290.124 0
2351
root 2.33978 14.808 -19.7622 955.072 -81.8463 135.99
lfemur -27.0874 -7.001 10.7935
ltibia 33.3855 0 0
lfoot -8.55252 22.7249 0
ltoes -27.9093 0 0
rfemur -59.3563 0.431702 8.55097
rtibia 76.2654 0 0
rfoot -19.3779 -16.3616 0
rtoes 0.89045 0 0
lowerback 21.5173 2.4058 -1.42084
upperback 0.177438 2.74777 0.107043
thorax -11.9829 1.32625 0.077509
lowerneck -6.22501 1.05482 -2.19331
upperneck 3.85102 1.71013 -2.5498
head 2.28917 0.731805 -0.367995
lclavicle 1.21958e-14 -1.25714e-14 0
lhumerus -16.8828 -26.7167 78.6172
lradius 105.295 0 0
lwrist 52.151 0 0
lhand -23.327 398.258 0
lfingers 7.12502 0 0
lthumb 2.3601 -650.946 0
rclavicle 2.64172e-14 2.03447e-14 0
rhumerus 42.5875 16.6119 -44.8537
rradius 53.8747 0 0
rwrist 2.55214 0 0
rhand -4.66055 -400.593 0
rfingers 7.12502 0 0
rthumb 22.1478 290.016 0
2352
root 2.39984 14.8469 -19.9837 984.35 -84.1744 106.689
lfemur -27.923 -6.81045 9.81823
ltibia 36.3716 0 0
lfoot -8.2851 22.3333 0
ltoes -26.4478 0 0
rfemur -59.2135 0.684199 8.48291
rtibia 76.0614 0 0
rfoot -19.6353 -16.8033 0
rtoes 0.684543 0 0
lowerback 21.5719 2.14054 -1.0433
upperback 0.190975 2.52372 0.342923
thorax -11.988 1.21006 0.194145
lowerneck -6.29186 1.62397 -1.8481
upperneck 4.06633 2.47321 -2.96545
head 2.3866 1.09995 -0.528982
lclavicle 6.09239e-15 -1.36681e-14 0
lhumerus -13.9317 -27.5113 77.45
lradius 105.962 0 0
lwrist 51.7654 0 0
lhand -23.6582 398.235 0
lfingers 7.12502 0 0
lthumb 1.93852 -651.021 0
rclavicle 2.23641e-14 2.15991e-14 0
rhumerus 40.9125 18.0908 -45.6217
rradius 54.7327 0 0
rwrist 2.1335 0 0
rhand -4.20463 -400.721 0
rfingers 7.12502 0 0
rthumb 22.4752 289.918 0
2353
root 2.4472 14.8745 -20.2084 1026.9 -83.9913 64.1156
lfemur -29.0335 -6.55726 8.52226
ltibia 39.595 0 0
lfoot -8.01205 21.9334 0
ltoes -25.1751 0 0
rfemur -59.1643 0.771305 8.45943
rtibia 75.8721 0 0
rfoot -19.8266 -17.1316 0
rtoes 0.463787 0 0
lowerback 21.5176 1.83828 -0.613846
upperback 0.218146 2.26606 0.591154
thorax -11.9152 1.076 0.308761
lowerneck -6.2743 2.27523 -1.32168
upperneck 4.19158 3.33489 -3.53256
head 2.45413 1.51751 -0.765933
lclavicle 2.8066e-17 -1.47578e-14 0
lhumerus -10.0345 -28.5607 75.9087
lradius 106.63 0 0
lwrist 51.4538 0 0
lhand -24.0634 398.208 0
lfingers 7.12502 0 0
lthumb 1.47578 -651.103 0
rclavicle 1.87888e-14 2.27056e-14 0
rhumerus 38.9756 19.8008 -46.5097
rradius 55.7944 0 0
rwrist 1.61626 0 0
rhand -3.73583 -400.851 0
rfingers 7.12502 0 0
rthumb 22.765 289.831 0
2354
root 2.4807 14.895 -20.4273 1054.23 -81.4307 36.6554
lfemur -30.3843 -6.24924 6.94572
ltibia 42.9964 0 0
lfoot -7.73617 21.5294 0
ltoes -24.1255 0 0
rfemur -59.1023 0.803346 8.5219
rtibia 75.7002 0 0
rfoot -19.9457 -17.3361 0
rtoes 0.231152 0 0
lowerback 21.5745 1.66114 -0.0843369
upperback 0.162538 2.20189 0.857107
thorax -12.0004 1.02613 0.320582
lowerneck -6.12991 2.78829 -0.98942
upperneck 4.39906 4.01629 -3.84569
head 2.52223 1.85031 -0.896657
lclavicle -5.91901e-15 -1.58265e-14 0
lhumerus -5.32623 -29.8285 74.0467
lradius 107.291 0 0
lwrist 51.2229 0 0
lhand -24.5333 398.176 0
lfingers 7.12502 0 0
lthumb 0.97821 -651.192 0
rclavicle 1.57446e-14 2.36477e-14 0
rhumerus 36.8172 21.7065 -47.4993
rradius 57.0412 0 0
rwrist 1.00982 0 0
rhand -3.26274 -400.984 0
rfingers 7.12502 0 0
rthumb 23.0127 289.757 0
2355
root 2.49931 14.9112 -20.6495 1066.94 -77.8539 23.759
lfemur -31.9412 -5.89425 5.12869
ltibia 46.5164 0 0
lfoot -7.46029 21.1253 0
ltoes -23.3333 0 0
rfemur -58.9235 0.895808 8.70215
rtibia 75.5479 0 0
rfoot -19.9868 -17.4066 0
rtoes -0.0103921 0 0
lowerback 21.588 1.41345 0.489191
upperback 0.149899 2.03759 0.984766
thorax -12.0049 0.921759 0.186386
lowerneck -5.9852 3.37587 -0.325181
upperneck 4.48347 4.7829 -4.42744
head 2.57547 2.2253 -1.16839
lclavicle -1.16707e-14 -1.686e-14 0
lhumerus 0.0578384 -31.2782 71.9174
lradius 107.941 0 0
lwrist 51.0794 0 0
lhand -25.0587 398.14 0
lfingers 7.12502 0 0
lthumb 0.452152 -651.286 0
rclavicle 1.32844e-14 2.44091e-14 0
rhumerus 34.4776 23.7722 -48.572
rradius 58.4547 0 0
rwrist 0.323559 0 0
rhand -2.79394 -401.114 0
rfingers 7.12502 0 0
rthumb 23.2135 289.697 0
2356
root 2.50713 14.9211 -20.8648 1074.17 -73.9608 16.3572
lfemur -33.6698 -5.5001 3.11125
ltibia 50.0957 0 0
lfoot -7.18724 20.7254 0
ltoes -22.8328 0 0
rfemur -58.6383 1.0432 8.98949
rtibia 75.4178 0 0
rfoot -19.9906 -17.4587 0
rtoes -0.257876 0 0
lowerback 21.6041 1.21613 1.20648
upperback 0.0865786 1.98542 1.17484
thorax -12.0688 0.862499 0.00407047
lowerneck -6.01333 3.85603 0.239787
upperneck 4.77706 5.4236 -4.92277
head 2.73322 2.53237 -1.39803
lclavicle -1.71488e-14 -1.78443e-14 0
lhumerus 5.98256 -32.8736 69.5742
lradius 108.573 0 0
lwrist 51.0301 0 0
lhand -25.6303 398.101 0
lfingers 7.12502 0 0
lthumb -0.0960663 -651.384 0
rclavicle 1.14614e-14 2.49733e-14 0
rhumerus 31.9969 25.9624 -49.7093
rradius 60.0164 0 0
rwrist -0.433127 0 0
rhand -2.33802 -401.242 0
rfingers 7.12502 0 0
rthumb 23.3628 289.652 0
2357
root 2.5012 14.9369 -21.078 1077.91 -69.9762 12.3907
lfemur -35.5358 -5.07462 0.933485
ltibia 53.6751 0 0
lfoot -6.91982 20.3338 0
ltoes -22.6583 0 0
rfemur -58.2576 1.24002 9.37321
rtibia 75.3123 0 0
rfoot -20.0014 -17.6087 0
rtoes -0.50833 0 0
lowerback 21.6441 1.02005 1.64945
upperback -0.00546905 1.86766 1.35363
thorax -12.19 0.78815 -0.0137746
lowerneck -5.91174 4.46549 0.777042
upperneck 5.05522 6.24142 -5.43526
head 2.87699 2.92843 -1.62272
lclavicle -2.22751e-14 -1.87654e-14 0
lhumerus 12.3128 -34.5781 67.0707
lradius 109.181 0 0
lwrist 50.6721 0 0
lhand -26.2388 398.059 0
lfingers 7.12502 0 0
lthumb -0.660114 -651.484 0
rclavicle 1.03286e-14 2.53239e-14 0
rhumerus 29.4156 28.2415 -50.8929
rradius 61.7076 0 0
rwrist -1.25085 0 0
rhand -1.90358 -401.363 0
rfingers 7.12502 0 0
rthumb 23.4558 289.625 0
